<?xml version="1.0" encoding="UTF-8" standalone="no"?>
<!DOCTYPE svg PUBLIC "-//W3C//DTD SVG 1.1//EN" "http://www.w3.org/Graphics/SVG/1.1/DTD/svg11.dtd">
<svg width="100%" height="100%" viewBox="0 0 567 567" version="1.1" xmlns="http://www.w3.org/2000/svg" xmlns:xlink="http://www.w3.org/1999/xlink" xml:space="preserve" xmlns:serif="http://www.serif.com/" style="fill-rule:evenodd;clip-rule:evenodd;stroke-linejoin:round;stroke-miterlimit:2;">
    <g transform="matrix(1.33334,0,0,1.33333,-94.4898,-94.4878)">
        <g id="J">
            <path id="path840" d="M368.506,113.386L198.427,113.386C151.775,113.386 113.387,151.774 113.387,198.425C113.387,198.426 113.387,198.426 113.387,198.426C113.387,213.976 126.183,226.772 141.733,226.772L425.2,226.772C440.748,226.772 453.543,213.976 453.543,198.426L453.544,198.426C453.544,198.426 453.544,198.426 453.544,198.425C453.544,151.774 415.157,113.386 368.506,113.386ZM141.733,340.157C126.183,340.157 113.387,352.953 113.387,368.503C113.387,368.503 113.387,368.503 113.387,368.504C113.387,415.155 151.775,453.543 198.427,453.543L255.118,453.543L255.118,453.545C301.77,453.545 340.158,415.156 340.158,368.505C340.158,352.955 327.362,340.159 311.812,340.159L311.812,340.157L141.733,340.157L141.733,340.157Z" style="fill:rgb(44,44,44);"/>
        </g>
    </g>
</svg>
